<mxfile host="app.diagrams.net" modified="2022-11-05T06:47:11.371Z" agent="5.0 (Windows NT 10.0; Win64; x64) AppleWebKit/537.36 (KHTML, like Gecko) Chrome/106.0.0.0 Safari/537.36" etag="9ymYtanjMzRTSX2mqf5s" version="20.5.1" type="github">
  <diagram id="NpVUPBb2_oGC_C8EEbAN" name="第 1 页">
    <mxGraphModel dx="1422" dy="706" grid="1" gridSize="10" guides="1" tooltips="1" connect="1" arrows="1" fold="1" page="1" pageScale="1" pageWidth="827" pageHeight="1169" math="0" shadow="0">
      <root>
        <mxCell id="0" />
        <mxCell id="1" parent="0" />
        <mxCell id="MK4Ko6ogGTh_YkK-KP2_-1" value="意图语法树" style="swimlane;startSize=20;horizontal=1;childLayout=treeLayout;horizontalTree=0;resizable=0;containerType=tree;fontSize=16;" vertex="1" parent="1">
          <mxGeometry x="220" y="280" width="160" height="190" as="geometry" />
        </mxCell>
        <mxCell id="MK4Ko6ogGTh_YkK-KP2_-2" value="" style="whiteSpace=wrap;html=1;fontSize=16;" vertex="1" parent="MK4Ko6ogGTh_YkK-KP2_-1">
          <mxGeometry x="60" y="40" width="40" height="40" as="geometry" />
        </mxCell>
        <mxCell id="MK4Ko6ogGTh_YkK-KP2_-3" value="" style="whiteSpace=wrap;html=1;fontSize=16;" vertex="1" parent="MK4Ko6ogGTh_YkK-KP2_-1">
          <mxGeometry x="20" y="130" width="40" height="40" as="geometry" />
        </mxCell>
        <mxCell id="MK4Ko6ogGTh_YkK-KP2_-4" value="" style="edgeStyle=elbowEdgeStyle;elbow=vertical;html=1;rounded=0;fontSize=16;curved=1;" edge="1" parent="MK4Ko6ogGTh_YkK-KP2_-1" source="MK4Ko6ogGTh_YkK-KP2_-2" target="MK4Ko6ogGTh_YkK-KP2_-3">
          <mxGeometry relative="1" as="geometry" />
        </mxCell>
        <mxCell id="MK4Ko6ogGTh_YkK-KP2_-5" value="" style="whiteSpace=wrap;html=1;fontSize=16;" vertex="1" parent="MK4Ko6ogGTh_YkK-KP2_-1">
          <mxGeometry x="100" y="130" width="40" height="40" as="geometry" />
        </mxCell>
        <mxCell id="MK4Ko6ogGTh_YkK-KP2_-6" value="" style="edgeStyle=elbowEdgeStyle;elbow=vertical;html=1;rounded=0;fontSize=16;curved=1;" edge="1" parent="MK4Ko6ogGTh_YkK-KP2_-1" source="MK4Ko6ogGTh_YkK-KP2_-2" target="MK4Ko6ogGTh_YkK-KP2_-5">
          <mxGeometry relative="1" as="geometry" />
        </mxCell>
      </root>
    </mxGraphModel>
  </diagram>
</mxfile>
